<svg height="1024" preserveAspectRatio="none" viewBox="0 0 1024 1024" width="1024" xmlns="http://www.w3.org/2000/svg"><path d="m969.6 351.25q-8.6-20.85-19.4-40.85-6.1-11.35-12.9-22.4-29.35-47.55-71.55-89.8-138.25-138.25-333.8-138.25-195.5 0-333.75 138.25-138.25 138.25-138.25 333.75 0 195.55 138.25 333.8 138.25 138.2 333.75 138.2 195.55 0 333.8-138.2 76.15-76.2 110.35-169.75 27.85-76.25 27.85-164.05 0-67.35-16.4-127.95-1.85-6.85-3.9-13.6-6.15-19.95-14.05-39.15z" fill-opacity=".098039"/><path d="m969.7 392q-1.75-6.85-3.65-13.6-1.52421875-5.28554687-3.2-10.55-2.47128906-7.946875-5.25-15.8-9.75-27.55-23.15-53.65-5.8-11.35-12.3-22.4-30.65-52-76.35-97.75-109-109-253.65-132.05-24.5-3.9-50.05-5.35-14.9-.85-30.1-.85-14.1 0-27.9.75-177.55 9.2-305.85 137.5-138.25 138.25-138.25 333.75 0 195.55 138.25 333.8 84.79003906 84.75703125 191.1 117.55 54.53808594 16.81308594 114.75 19.95.2 0 .4 0 12.15.6 24.5.7 1.5 0 3 0 15.25 0 30.1-.8 3.5-.2 6.95-.45 30.05-2.15 58.7-7.7 11.8-2.3 23.4-5.15 120.6-30.05 214.65-124.1 72.9-72.95 107.35-161.8 27.75-71.6 30.55-153.5.3-9.2.3-18.5 0-1 0-2 0-.5 0-1-.35-61.3-14.3-117z" fill="#333"/><path d="m981.95 558.7q.415625-4.38144531.7-8.85l-187.65-187.65-377.05 41.05-181.8 266.3 313.15 313.15q3.9546875-.253125 7.85-.6 25.82636719-2.25097656 50.6-7.05 11.8-2.3 23.4-5.15 120.6-30.05 214.65-124.1 72.9-72.95 107.35-161.8 22.91660156-59.12871094 28.8-125.3z" fill-opacity=".2"/><path d="m781.9 362.75q2.05-7.75-5.7-9.8l-413.4-110.8q-7.75-2.05-9.8 5.7l-110.8 413.4q-2.05 7.75 5.7 9.8l413.4 110.8q7.75 2.05 9.8-5.7zm-205.9 105.85q7.7 2.05 5.6 9.8l-26.15 97.55q-2.05 7.7-9.75 5.65l-97.55-26.15q-7.75-2.1-5.7-9.8l26.15-97.55q2.1-7.75 9.85-5.65z" fill="#ccc"/><g fill="none" stroke-linecap="round" stroke-linejoin="round" stroke-width="14"><path d="m247.9 671.05q-7.75-2.05-5.7-9.8l110.8-413.4q2.05-7.75 9.8-5.7l413.4 110.8m-194.6 125.45-26.15 97.55q-2.05 7.7-9.75 5.65l-97.55-26.15" stroke="#fff"/><path d="m776.2 352.95q7.75 2.05 5.7 9.8l-110.8 413.4q-2.05 7.75-9.8 5.7l-413.4-110.8m200.25-115.6q-7.75-2.1-5.7-9.8l26.15-97.55q2.1-7.75 9.85-5.65l97.55 26.15q7.7 2.05 5.6 9.8" stroke="#666"/></g></svg>